<?xml version="1.0" encoding="utf-8"?>
<!-- Generator: Adobe Illustrator 23.0.3, SVG Export Plug-In . SVG Version: 6.00 Build 0)  -->
<svg version="1.1" id="圖層_1" xmlns="http://www.w3.org/2000/svg" xmlns:xlink="http://www.w3.org/1999/xlink" x="0px" y="0px"
	 viewBox="0 0 236.3 129.7" style="enable-background:new 0 0 236.3 129.7;" xml:space="preserve">
<style type="text/css">
	.st0{fill:#3E3A39;}
</style>
<title>未命名-1</title>
<g>
	<path class="st0" d="M-9.4,132.9h136.8V-3.2H-9.4V132.9z M79.6,112.6l18.5-6.9l3.9-15.9l3.9,15.9l18.5,6.9H79.6z M100.8,13h23.4
		l-17.6,6.7l-3,54.9h-3.4l-1.3-43.1l-17,36.1l-3.1-1.3L100.8,13z M36.3,13l32.1,80.8l-10.1,25.8L13.5,13L36.3,13z M12.1,105.8
		l2.4-50.8h3.3l2.4,50.8l18.4,6.9H-6.2L12.1,105.8z"/>
	<polygon class="st0" points="199.4,58.6 194.8,60.8 200.3,60.8 200.3,60.8 202.7,60.8 202.7,8.9 201.5,8.9 201.5,8.9 194.8,8.9 
		199.4,11.2 200.3,21.4 200.3,48.4 	"/>
	<path class="st0" d="M214.7,61.2c17.7,1,31.7-13.3,30.6-28.2c-1-13.5-8.8-23-30.2-24.4c15.8,7,20.3,12.7,20.3,26.3
		C235.5,46.8,231.3,56.3,214.7,61.2z"/>
	<polygon class="st0" points="201.8,99 200.5,119.5 194.5,121.7 201.8,121.7 209,121.7 203.1,119.5 	"/>
	<polygon class="st0" points="201.8,69.7 227.4,121.7 238.8,121.7 212.5,69.7 	"/>
	<polygon class="st0" points="231.8,69.7 237.3,71.5 238.8,100.1 240,71.2 245.7,69.7 	"/>
	<polygon class="st0" points="164.1,8.9 159.1,8.9 155.5,16.9 175,61 182.6,61 186,61 189,61 185.5,59.6 	"/>
	<polygon class="st0" points="138.7,59 138.6,53.7 135.4,59.2 130,61 142.9,61 	"/>
	<polygon class="st0" points="157,40.9 146.5,40.9 152.4,24.8 141.6,48.1 145.5,42.9 	"/>
	<polygon class="st0" points="163.8,121.6 177.9,121.6 177.9,113.7 175.8,119.4 	"/>
	<polygon class="st0" points="175.8,72 177.9,77.7 177.9,69.7 163.8,69.7 	"/>
	<polygon class="st0" points="165.8,100.1 165.8,86.2 164.4,92.3 153,93.6 163.9,94.7 	"/>
	<rect x="141.1" y="69.7" class="st0" width="9.9" height="51.9"/>
</g>
</svg>
